<svg xmlns="http://www.w3.org/2000/svg" width="32" height="32" viewBox="0 -0.5 32 32" shape-rendering="crispEdges"><path stroke="#ffffff" d="M0 0h32M0 1h32M0 2h32M0 3h32M0 4h32M0 5h32M0 6h32M0 7h32M0 8h32M0 9h32M0 10h32M0 11h10M25 11h7M0 12h10M25 12h7M0 13h10M25 13h7M0 14h10M13 14h3M19 14h3M25 14h7M0 15h10M13 15h3M19 15h3M25 15h7M0 16h10M13 16h3M19 16h3M25 16h7M0 17h7M13 17h3M19 17h3M25 17h7M0 18h7M13 18h3M19 18h3M25 18h7M0 19h7M13 19h3M19 19h3M25 19h7M0 20h32M0 21h32M0 22h32M0 23h32M0 24h32M0 25h32M0 26h32M0 27h32M0 28h32M0 29h32M0 30h32M0 31h32" /><path stroke="#000000" d="M10 11h15M10 12h15M10 13h15M10 14h3M16 14h3M22 14h3M10 15h3M16 15h3M22 15h3M10 16h3M16 16h3M22 16h3M7 17h6M16 17h3M22 17h3M7 18h6M16 18h3M22 18h3M7 19h6M16 19h3M22 19h3" /></svg>