<?xml version="1.0" standalone="no"?>
<!DOCTYPE svg PUBLIC "-//W3C//DTD SVG 20010904//EN"
 "http://www.w3.org/TR/2001/REC-SVG-20010904/DTD/svg10.dtd">
<svg version="1.0" xmlns="http://www.w3.org/2000/svg"
 width="700.000000pt" height="700.000000pt" viewBox="0 0 700.000000 700.000000"
 preserveAspectRatio="xMidYMid meet">
<g transform="translate(0.000000,700.000000) scale(0.100000,-0.100000)"
fill="#000000" stroke="none">
<path d="M2190 3935 l0 -655 -330 0 -330 0 2 -327 3 -328 652 -3 653 -2 2 657
3 658 328 3 327 2 0 -660 0 -660 328 2 327 3 3 658 2 657 325 0 325 0 2 -657
3 -658 325 0 325 0 3 983 2 982 -1640 0 -1640 0 0 -655z"/>
</g>
</svg>