<svg xmlns="http://www.w3.org/2000/svg" xmlns:xlink="http://www.w3.org/1999/xlink" version="1.1" width="500" height="500" viewBox="0 0 500 500" xml:space="preserve"><g transform="matrix(1 0 0 1 250 250)"><rect width="500" height="500" fill="#000000" vector-effect="non-scaling-stroke" x="-250" y="-250" rx="0" ry="0" /></g><g transform="matrix(27.64 -1.71 1.71 27.64 255.15 262.17)"><path fill="#ffffff" vector-effect="non-scaling-stroke" stroke-linecap="round" transform="translate(-7, -7)" d="M 3 12 L 4 12 L 4 13 L 3 13 M 3 11 L 4 11 L 4 12 L 3 12 M 4 11 L 5 11 L 5 12 L 4 12 M 4 10 L 5 10 L 5 11 L 4 11 M 4 9 L 5 9 L 5 10 L 4 10 M 3 9 L 4 9 L 4 10 L 3 10 M 2 8 L 3 8 L 3 9 L 2 9 M 1 7 L 2 7 L 2 8 L 1 8 M 0 8 L 1 8 L 1 9 L 0 9 M 1 6 L 2 6 L 2 7 L 1 7 M 1 5 L 2 5 L 2 6 L 1 6 M 1 4 L 2 4 L 2 5 L 1 5 M 0 3 L 1 3 L 1 4 L 0 4 M 2 3 L 3 3 L 3 4 L 2 4 M 2 2 L 3 2 L 3 3 L 2 3 M 3 1 L 4 1 L 4 2 L 3 2 M 4 2 L 5 2 L 5 3 L 4 3 M 5 3 L 6 3 L 6 4 L 5 4 M 6 3 L 7 3 L 7 4 L 6 4 M 7 3 L 8 3 L 8 4 L 7 4 M 8 3 L 9 3 L 9 4 L 8 4 M 9 2 L 10 2 L 10 3 L 9 3 M 10 1 L 11 1 L 11 2 L 10 2 M 11 2 L 12 2 L 12 3 L 11 3 M 11 3 L 12 3 L 12 4 L 11 4 M 12 4 L 13 4 L 13 5 L 12 5 M 13 3 L 14 3 L 14 4 L 13 4 M 12 5 L 13 5 L 13 6 L 12 6 M 12 6 L 13 6 L 13 7 L 12 7 M 12 7 L 13 7 L 13 8 L 12 8 M 13 8 L 14 8 L 14 9 L 13 9 M 11 8 L 12 8 L 12 9 L 11 9 M 10 9 L 11 9 L 11 10 L 10 10 M 9 9 L 10 9 L 10 10 L 9 10 M 8 9 L 9 9 L 9 10 L 8 10 M 7 9 L 8 9 L 8 10 L 7 10 M 6 9 L 7 9 L 7 10 L 6 10 M 5 9 L 6 9 L 6 10 L 5 10 M 9 10 L 10 10 L 10 11 L 9 11 M 9 11 L 10 11 L 10 12 L 9 12 M 9 12 L 10 12 L 10 13 L 9 13" /></g></svg>